<?xml version="1.0" encoding="utf-8"?>
<!-- Uploaded to: SVG Repo, www.svgrepo.com, Generator: SVG Repo Mixer Tools -->
<svg width="800px" height="800px" viewBox="0 0 1024 1024" class="icon"  version="1.1" xmlns="http://www.w3.org/2000/svg"><path d="M993.763 494.539v35c0 13.33-6.04 26.662-18.135 37.135-140.149 121.422-280.35 242.795-420.49 364.219-11.813 10.238-25.813 15.503-42.454 15.503v-35c16.644 0 30.641-5.265 42.454-15.503 140.142-121.424 280.336-242.801 420.49-364.217 12.095-10.473 18.135-23.802 18.135-37.137z" fill="#508CCA" /><path d="M30.238 529.367v-3.5-1.75-3.5-3.5-1.75-3.5-3.5-1.75-3.5-3.5-1.75-3.5c0 14.707 6.7 29.312 19.037 40.019 138.449 120.063 277.049 239.996 415.562 360.019 13.002 11.26 28.74 16.467 47.853 16.994v35c-19.107-0.527-34.851-5.734-47.853-16.994C326.324 809.383 187.725 689.449 49.275 569.387c-12.337-10.705-19.037-25.313-19.037-40.02z" fill="#508CCA" /><path d="M510.786 77.601c16.262 0 32.546 5.362 44.946 16.097 139.949 121.188 279.9 242.376 419.818 363.585 24.241 20.995 24.295 53.414 0.079 74.396C835.48 653.1 695.281 774.477 555.142 895.898c-11.814 10.237-25.813 15.5-42.452 15.5-19.109-0.527-34.852-5.734-47.854-16.994-138.511-120.021-277.11-239.955-415.56-360.019-19.58-16.987-24.96-43.811-11.895-65.252 3.919-6.438 8.669-11.829 14.465-16.849C189.954 332.733 328.026 213.15 466.109 93.565c12.293-10.637 28.475-15.964 44.677-15.964z" fill="#5EAADF" /><path d="M669.689 328.946v16.8c0-0.976-0.277-1.924-0.84-2.797-1.19-1.851-4.979-3.413-7.648-3.447-6.698-0.098-13.391-0.118-20.087-0.118-2.234 0-4.464 0.003-6.695 0.004l-7.007 0.002c-8.331 0-16.666-0.029-24.989-0.212-5.174-0.104-10.866-1.397-15.292-3.659-5.374-2.736-8.013-7.744-8.013-12.785v-16.8c0 5.04 2.639 10.048 8.013 12.785 4.426 2.26 10.118 3.553 15.292 3.659 8.322 0.185 16.656 0.212 24.989 0.212l7.007-0.003c2.231-0.001 4.463-0.004 6.695-0.004 6.694 0 13.389 0.019 20.087 0.118 2.669 0.033 6.458 1.597 7.648 3.447 0.563 0.876 0.84 1.822 0.84 2.798z" fill="#2762AF" /><path d="M669.689 328.946v16.8c0-0.976-0.277-1.924-0.84-2.797-1.19-1.851-4.979-3.413-7.648-3.447-6.698-0.098-13.391-0.118-20.087-0.118-2.234 0-4.464 0.003-6.695 0.004l-7.007 0.002c-8.331 0-16.666-0.029-24.989-0.212-5.174-0.104-10.866-1.397-15.292-3.659-5.374-2.736-8.013-7.744-8.013-12.785v-16.8c0 5.04 2.639 10.048 8.013 12.785 4.426 2.26 10.118 3.553 15.292 3.659 8.322 0.185 16.656 0.212 24.989 0.212l7.007-0.003c2.231-0.001 4.463-0.004 6.695-0.004 6.694 0 13.389 0.019 20.087 0.118 2.669 0.033 6.458 1.597 7.648 3.447 0.563 0.876 0.84 1.822 0.84 2.798" fill="#2762AF" /><path d="M745.461 358.245v16.8c0 18.703-0.009 37.403-0.031 56.108-0.01 9.811-4.92 16.133-14.183 18.785a18.057 18.057 0 0 1-4.961 0.671c-6.396 0-13.073-3.072-15.843-8.239-1.979-3.686-3.217-7.997-3.297-12.046-0.17-8.243-0.232-16.49-0.232-24.735v-16.8c0 8.247 0.063 16.493 0.232 24.735 0.081 4.049 1.317 8.362 3.297 12.046 2.77 5.167 9.446 8.237 15.843 8.237 1.7 0 3.38-0.217 4.961-0.671 9.263-2.651 14.173-8.975 14.183-18.785 0.022-18.702 0.031-37.403 0.031-56.106z" fill="#2762AF" /><path d="M745.461 358.245v16.8c0 18.703-0.009 37.403-0.031 56.108 0 0.559-0.02 1.106-0.048 1.642v-16.8c0.028-0.536 0.048-1.083 0.048-1.642 0.022-18.704 0.031-37.405 0.031-56.108M745.38 415.995v16.8c-0.271 4.5-1.655 8.2-4.091 11.08v-16.8c2.437-2.88 3.82-6.581 4.091-11.08M741.289 427.075v16.8a17.06 17.06 0 0 1-3.873 3.358v-16.801a17.032 17.032 0 0 0 3.873-3.357" fill="#2762AF" /><path d="M737.418 430.432v16.801a21.936 21.936 0 0 1-4.266 2.085v-16.801c1.567-0.575 2.99-1.27 4.266-2.085M733.152 432.517v16.801c-0.614 0.226-1.25 0.433-1.905 0.621-0.774 0.223-1.569 0.388-2.381 0.497v-16.8a16.74 16.74 0 0 0 2.381-0.498c0.655-0.189 1.29-0.395 1.905-0.621M728.864 433.636v16.8c-0.847 0.116-1.712 0.175-2.58 0.175-6.396 0-13.072-3.072-15.843-8.239-1.979-3.686-3.217-7.997-3.297-12.046-0.168-8.243-0.231-16.49-0.231-24.735v-16.8c0 8.247 0.063 16.493 0.231 24.735 0.082 4.049 1.317 8.362 3.297 12.046 2.771 5.167 9.446 8.237 15.843 8.237 0.87-0.001 1.735-0.057 2.58-0.173" fill="#2762AF" /><path d="M707.074 361.966v16.8c0-3.198-0.923-5.891-4.365-6.906a10.666 10.666 0 0 0-2.993-0.453c-2.273 0-4.464 0.833-6.532 2.661-38.515 34.053-77.19 67.969-115.8 101.944-3.068 2.695-4.551 4.843-4.551 7.168v-16.8c0-2.324 1.481-4.474 4.551-7.168 38.608-33.975 77.285-67.89 115.8-101.943 2.071-1.829 4.259-2.661 6.532-2.661 0.981 0 1.979 0.155 2.993 0.453 3.442 1.014 4.365 3.709 4.365 6.905z" fill="#2762AF" /><path d="M707.074 361.966v16.8c0-3.198-0.923-5.891-4.365-6.906a10.666 10.666 0 0 0-2.993-0.453c-0.411 0-0.816 0.027-1.225 0.082v-16.8a9.11 9.11 0 0 1 1.225-0.082c0.981 0 1.979 0.155 2.993 0.453 3.442 1.015 4.365 3.71 4.365 6.906" fill="#2762AF" /><path d="M698.491 354.69v16.8a8.918 8.918 0 0 0-1.868 0.467v-16.8a9.044 9.044 0 0 1 1.868-0.467" fill="#2762AF" /><path d="M696.623 355.158v16.8a9.88 9.88 0 0 0-1.921 0.961v-16.8a9.768 9.768 0 0 1 1.921-0.961M694.702 356.118v16.8a12.32 12.32 0 0 0-1.52 1.152c-38.515 34.053-77.19 67.969-115.8 101.944-0.995 0.875-1.826 1.691-2.49 2.478v-16.8c0.665-0.785 1.495-1.604 2.49-2.479 38.608-33.975 77.285-67.89 115.8-101.943a12.371 12.371 0 0 1 1.52-1.152" fill="#2762AF" /><path d="M574.894 461.69v16.8c-1.29 1.518-1.964 2.912-2.053 4.362v-16.8c0.089-1.449 0.763-2.844 2.053-4.362M572.841 466.053v16.8c-0.007 0.109-0.008 0.22-0.008 0.328v-16.8c0-0.109 0.001-0.218 0.008-0.328" fill="#2762AF" /><path d="M364.007 485.418c-0.116 0.079-0.229 0.153-0.338 0.228 0-5.599-0.005-11.197-0.005-16.797 0.112-0.073 0.227-0.151 0.345-0.23 0.381-0.253 0.763-0.504 1.171-0.771V467.848c0.162-0.104 0.327-0.212 0.498-0.319 0.109-0.072 0.221-0.145 0.331-0.213V467.316c0.34-0.22 0.681-0.436 1.022-0.648V466.668a135.257 135.257 0 0 1 2.222-1.368 131.021 131.021 0 0 1 22.199-10.672c0 7.371 0.008 11.427 0.075 16.773a130.994 130.994 0 0 0-24.1 11.818l-0.497 0.311v-0.533-0.567-0.586-0.598-0.597-0.585-0.562-0.527 4.555c-0.291 0.183-0.582 0.368-0.873 0.554v-0.521-0.549-0.571-0.58-0.58-0.566-0.548-0.516 4.431l-0.379 0.245c-0.174 0.114-0.343 0.22-0.507 0.327v-0.618-0.655-0.675-0.688-0.688-0.674-0.649-0.614 5.261c-0.406 0.261-0.786 0.511-1.164 0.762z m4.149-8.604l-0.004 0.003-0.004 0.003-0.004 0.002-0.006 0.003-0.005 0.002-0.006 0.003-0.005 0.003-0.007 0.002-0.006 0.003-0.005 0.002-0.004 0.004-0.006 0.002-0.004 0.003-0.004 0.001-0.005 0.002-0.004 0.001 0.004-0.001 0.005-0.002 0.004-0.001 0.004-0.003 0.006-0.002 0.004-0.004 0.005-0.002 0.006-0.003 0.007-0.002 0.005-0.003 0.006-0.003 0.005-0.002 0.006-0.003 0.004-0.002 0.004-0.003 0.004-0.003m-0.085-8.211l-0.002 0.002-0.002 0.001h-0.003l-0.002 0.001h-0.003l-0.001 0.001-0.002 0.001-0.001 0.001h-0.001l-0.002 0.001-0.001 0.001h-0.002l-0.001 0.001-0.001 0.001-0.002 0.001 0.002-0.001 0.001-0.001 0.001-0.001h0.002l0.001-0.001 0.002-0.001h0.001l0.001-0.001 0.002-0.001 0.001-0.001h0.003l0.002-0.001h0.003l0.002-0.001 0.002-0.002m-0.993 4.957l-0.006 0.004-0.006 0.003-0.006 0.002-0.006 0.004-0.005 0.002-0.006 0.003-0.006 0.004-0.005 0.004-0.006 0.002-0.006 0.004-0.006 0.002-0.006 0.004-0.007 0.002-0.001 0.005-0.006 0.002-0.005 0.003 0.005-0.003 0.006-0.002 0.005-0.004 0.007-0.002 0.006-0.004 0.007-0.002 0.005-0.004 0.006-0.002 0.005-0.004 0.006-0.004 0.006-0.003 0.005-0.002 0.007-0.004 0.005-0.002 0.006-0.003 0.002-0.005m-1.049-4.741v8.859-8.859m-0.853 0.856V480.036v-10.361" fill="#2762AF" /><path d="M391.63 454.559v16.801a131.24 131.24 0 0 0-25.442 12.636v-16.8c0.409-0.265 0.822-0.522 1.236-0.779a131.173 131.173 0 0 1 24.206-11.858M366.188 467.197v16.8c-0.172 0.109-0.34 0.22-0.511 0.329-0.604 0.387-1.138 0.737-1.67 1.091a160.668 160.668 0 0 0-4.219 2.919c-0.889 0.637-1.773 1.289-2.651 1.952-0.529 0.397-1.057 0.803-1.583 1.21-6.143 4.765-11.515 9.933-16.146 15.4v-16.801c4.633-5.467 10.005-10.635 16.146-15.399a146.553 146.553 0 0 1 4.234-3.163 154.275 154.275 0 0 1 4.219-2.919c0.532-0.354 1.065-0.704 1.67-1.091 0.171-0.108 0.34-0.218 0.511-0.328" fill="#2762AF" /><path d="M442.18 462.84c-17.147 0-32.961 2.485-47.635 7.488v-1.963-2.082-2.162-2.2-2.197-2.158-2.078-1.958c14.672-5.001 30.486-7.488 47.635-7.488 0.687-0.008 1.367-0.014 2.047-0.014 60.354 0 102.568 35.867 117.007 71.101V517.129l0.172 0.438V517.567c0.084 0.217 0.189 0.5 0.353 0.934V518.501l0.109 0.283c0.106 0.297 0.215 0.592 0.423 1.188v16.793c-0.206-0.596-0.315-0.891-0.423-1.188a13.23 13.23 0 0 1-0.107-0.283v-0.334-0.176-0.361-0.186-0.373-0.188-0.373-0.184-0.359-0.172-0.18-0.012-0.023-0.012-0.023-0.014-0.023-0.012-0.025-0.01-0.021-0.441-0.922-0.479-0.975-0.496-0.992-0.492-0.969-0.471-0.908-0.432 10.638a1102.5 1102.5 0 0 0-0.354-0.936v-1.252-1.33-1.377-1.4-1.406-1.377-1.326-1.254V534.358c-0.065-0.175-0.119-0.306-0.171-0.438-14.439-35.231-56.651-71.101-117.006-71.101-0.683 0.008-1.364 0.013-2.05 0.021z" fill="#2762AF" /><path d="M567.659 550.971v16.8c-0.019-10.044-1.695-20.313-5.222-30.58-0.313-0.89-0.438-1.25-0.569-1.605-0.376-0.996-0.503-1.322-0.635-1.656-14.438-35.232-56.65-71.101-117.006-71.101-0.679 0-1.361 0.005-2.047 0.014-7.524 0-14.792 0.479-21.819 1.438v-16.8c7.027-0.962 14.295-1.438 21.819-1.438 0.686-0.008 1.368-0.014 2.047-0.014 60.354 0 102.567 35.868 117.006 71.101 0.132 0.334 0.259 0.662 0.635 1.656 0.131 0.358 0.26 0.721 0.569 1.604 3.527 10.266 5.205 20.536 5.222 30.581M420.359 447.479v16.8c-10.054 1.372-19.612 3.73-28.729 7.081v-16.8c9.117-3.351 18.679-5.709 28.729-7.081" fill="#2762AF" /><path d="M444.229 446.026c60.355 0 102.569 35.867 116.605 70.105 0.531 1.326 0.656 1.652 0.784 1.984 0.38 1.022 0.508 1.383 0.637 1.744 3.709 10.793 5.388 21.063 5.406 31.104 0.103 54.226-48.154 101.74-114.784 105.586a191.17 191.17 0 0 1-10.855 0.318c-40.312-0.105-73.164-13.351-99.047-40.285a83.09 83.09 0 0 1-0.716-0.752 139.693 139.693 0 0 1-2.42-2.615c-15.054-16.676-23.311-38.867-23.273-61.69 0.042-27.549 12.163-56.018 38.987-76.826a125.4 125.4 0 0 1 1.583-1.211c0.878-0.662 1.765-1.314 2.65-1.953a146.232 146.232 0 0 1 3.365-2.346 129.557 129.557 0 0 1 5.998-3.832c21.521-12.942 45.563-19.32 72.574-19.32 1.143-0.006 1.827-0.011 2.506-0.011z" fill="#A6D3F1" /><path d="M745.115 289.538c0.132 1.737 0.322 3.151 0.322 4.566 0.021 40.076 0.039 80.163-0.011 120.249-0.008 9.811-4.919 16.133-14.183 18.785-1.581 0.454-3.26 0.671-4.961 0.671-6.396 0-13.072-3.071-15.843-8.237-1.979-3.686-3.217-7.997-3.297-12.046-0.353-17.128-0.242-34.264-0.07-51.4 0.03-3.264-0.865-6.033-4.365-7.062a10.666 10.666 0 0 0-2.993-0.453c-2.273 0-4.464 0.833-6.532 2.661-38.515 34.053-77.19 67.969-115.8 101.944-5.814 5.106-5.936 8.248-1.067 14.343 18.618 23.343 29.333 49.217 29.271 77.536-0.07 32.9-12.87 62.492-37.313 87.765-29.477 30.477-67.908 46.772-113.321 50.534-4.521 0.375-9.13 0.564-13.8 0.564-64.619 0-140.857-36.051-159.564-112.687-12.893-52.75 16.046-110.661 69.248-140.168 27.857-15.451 58.073-24.042 90.834-24.042 2.188 0 4.379 0.037 6.59 0.115 31.218 1.091 59.897 9.708 85.965 24.688 2.952 1.697 5.398 2.569 7.7 2.569 2.796 0 5.377-1.284 8.396-3.932 38.799-34.046 77.536-68.136 116.423-102.103 3.026-2.635 3.71-5.744 2.107-8.25-1.191-1.852-4.98-3.414-7.649-3.447-6.698-0.099-13.391-0.118-20.087-0.118-2.234 0-4.464 0.003-6.695 0.004l-7.008 0.003c-8.33 0-16.665-0.029-24.988-0.213-5.174-0.104-10.865-1.398-15.292-3.658-11.058-5.631-10.532-20.881 0.727-26.224 3.78-1.799 8.428-3.09 12.683-3.107 26.206-0.116 52.412-0.145 78.613-0.145 21.017 0 42.026 0.017 63.039 0.022 0.734 0.003 1.472 0.132 2.921 0.273zM452.877 656.553c66.629-3.846 114.885-51.358 114.782-105.582-0.019-10.045-1.695-20.313-5.222-30.582-0.313-0.887-0.438-1.248-0.569-1.604-0.376-0.994-0.503-1.322-0.635-1.656-14.438-35.232-56.65-71.101-117.006-71.101-0.679 0-1.361 0.005-2.047 0.014-27.469 0-51.509 6.376-72.93 19.258-0.679 0.41-1.253 0.76-1.827 1.12-0.585 0.365-1.167 0.733-1.748 1.109-0.604 0.387-1.138 0.736-1.67 1.091a162.404 162.404 0 0 0-4.219 2.919c-0.889 0.637-1.773 1.29-2.651 1.953-0.53 0.397-1.057 0.802-1.583 1.21-26.824 20.81-38.943 49.278-38.988 76.826-0.036 22.823 8.221 45.016 23.275 61.692 0.328 0.363 0.657 0.728 0.991 1.084 0.472 0.517 0.948 1.025 1.427 1.531l0.574 0.604c26.026 27.082 58.88 40.326 98.638 40.433 4.115-0.001 7.733-0.108 11.408-0.319" fill="#4375BA" /><path d="M278.54 568.58v-16.799c0 8.535 0.991 17.078 3.048 25.487 18.707 76.638 94.945 112.687 159.564 112.687 4.671 0 9.279-0.189 13.8-0.563 45.413-3.764 83.848-20.061 113.321-50.534 24.442-25.275 37.244-54.865 37.313-87.767v16.799c-0.07 32.902-12.87 62.494-37.313 87.767-29.477 30.477-67.908 46.771-113.321 50.535a167.04 167.04 0 0 1-13.8 0.563c-64.619 0-140.857-36.051-159.564-112.686a107.189 107.189 0 0 1-3.048-25.489z" fill="#2762AF" /><path d="M605.588 551.092v16.799a122.507 122.507 0 0 1-0.226 7.271V558.36c0.147-2.407 0.222-4.829 0.226-7.268M605.362 558.359v16.801c-1.614 26.832-11.908 51.346-30.253 72.963v-16.799c18.345-21.619 28.637-46.133 30.253-72.965M575.107 631.324v16.799a156.544 156.544 0 0 1-6.834 7.533c-8.815 9.114-18.435 16.961-28.8 23.586v-16.801c10.365-6.621 19.983-14.47 28.8-23.584a156.544 156.544 0 0 0 6.834-7.533" fill="#2762AF" /><path d="M539.475 662.441v16.801c-9.927 6.342-20.538 11.559-31.791 15.692v-16.799c11.254-4.133 21.864-9.352 31.791-15.694M507.684 678.137v16.8c-12.753 4.686-26.326 7.979-40.654 9.938v-16.801c14.325-1.957 27.901-5.252 40.654-9.937M467.028 688.074v16.801c-3.968 0.541-7.992 0.979-12.076 1.316-4.521 0.375-9.13 0.563-13.8 0.563-64.619 0-140.857-36.051-159.564-112.686a107.203 107.203 0 0 1-3.048-25.49V551.78c0 8.535 0.991 17.078 3.048 25.487 18.707 76.638 94.945 112.687 159.564 112.687 4.67 0 9.279-0.189 13.8-0.563 4.083-0.334 8.108-0.776 12.076-1.317" fill="#2762AF" /></svg>